<svg xmlns="http://www.w3.org/2000/svg" version="1.1" xmlns:xlink="http://www.w3.org/1999/xlink" xmlns:svgjs="http://svgjs.dev/svgjs" width="1000" height="1125" viewBox="0 0 1000 1125"><g transform="matrix(1,0,0,1,1.7053025658242404e-13,0)"><svg viewBox="0 0 320 360" data-background-color="#ffffff" preserveAspectRatio="xMidYMid meet" height="1125" width="1000" xmlns="http://www.w3.org/2000/svg" xmlns:xlink="http://www.w3.org/1999/xlink"><g id="tight-bounds" transform="matrix(1,0,0,1,0,0)"><svg viewBox="0 0 320 360" height="360" width="320"><rect width="320" height="360" fill="url(#edb73165-f4d6-4796-8066-ffc17443206a)" mask="url(&quot;#d23078d7-2433-4bd6-a132-cf59737ff3d6&quot;)" data-fill-palette-color="tertiary"></rect><rect width="320" height="360" fill="url(#4434aedb-ecd1-4bc5-b029-e8dd08297304)" mask="url(&quot;#0998d16f-a88e-45f0-8d60-4ff808cd34b8&quot;)" data-fill-palette-color="secondary"></rect><g><svg></svg></g><g><svg viewBox="0 0 320 360" height="360" width="320"><g><path xmlns="http://www.w3.org/2000/svg" d="M20.961 227.22l3.726 4.658-1.863-6.056c-0.466-2.795-3.726 0.466-1.863 1.398M25.153 224.425c1.397 2.329 2.795 4.658 2.795 6.987 0 3.261 2.795 4.658 5.123 5.589-3.261-3.726-5.124-13.974-7.918-12.576M204.017 26.929c7.918 0 15.371-0.932 23.756 0.931 20.495 5.124 37.729 15.371 49.374 29.811l32.606 52.169c1.397 13.042 4.192 27.482 3.726 43.319 3.261 0 2.795-4.658 6.521-5.59-3.726 9.316-5.59 20.961-6.521 34.469-2.329-7.453 0-18.632 0.466-24.687-3.261 5.124-5.124 1.397-5.124-0.932 0.466-3.726-1.397-3.261-2.795-4.658-5.124-4.658-8.384-9.782-12.11-17.7 2.329-6.055 2.795-14.905-4.658-19.563-2.329-1.397-5.124-3.726-6.521-7.453-1.863-5.124-5.124-11.179-4.193-19.097 0.466-2.329-6.987 5.124-11.179 1.863-18.166-12.576-36.332-27.016-58.224-39.127-11.645 0-20.029-4.192-24.221-9.316-3.726-4.658-0.932-10.713 4.658-11.179 3.261 0 6.987-0.932 9.782 0.932 0.466-1.863 2.329-4.192 4.657-4.192M157.904 16.215l0.932 0.466c4.658 0.932 6.987 7.453 12.11 5.124 0 3.261 0.466 6.521-0.466 8.85-1.397 3.726-5.59 3.726-8.85 3.726-31.208-1.863-49.374 11.179-68.471 22.358-5.124 3.261-10.713 5.59-14.906 9.782-20.029 18.632-41.921 35.866-47.045 70.335l-4.192 38.195c-0.466 4.192-5.124 8.384-4.192 13.508l3.26 22.824c-3.261-3.261-5.124 0.932-4.192 2.795 0.466 1.397 2.329 6.055 5.124 1.863 3.726 6.987 7.453 20.495 12.576 26.55 15.837 18.632 36.332 35.4 53.101 52.169 4.192-0.932 7.453-0.932 8.384-3.727 1.397 2.795-1.397 5.59-3.726 6.056 7.453 4.658 15.837 8.85 27.016 9.781 14.44 0.932 27.948 3.261 40.524 6.522 6.521-1.863 13.042-2.795 20.029-3.261 2.329 0 3.726-3.726 6.521-4.658l0.466-4.658c2.795 4.192 2.329-1.397 0.466-4.192 3.261 2.795 4.192 5.124 5.589 6.987 0-1.397 3.726-6.521 3.727-0.466l0.931-6.055c1.397-0.932 1.863 5.124 3.261 0.931 1.397-4.192 4.192-0.932 6.987-2.329-0.932 1.863-0.466 5.59 2.794 3.261l3.727-3.261c2.329 5.59 6.055 3.261 7.918 2.329 20.495-13.042 40.99-28.413 60.553-43.784l-0.466 6.055 2.329-7.453c2.329 2.329 4.192 0.466 5.124-0.931 2.795-4.658 6.521-9.316 12.577-13.508-7.453 20.029-16.303 35.866-27.482 48.908l-4.658 5.59c0 3.261-0.932 7.453-4.658 7.918-1.863 0.466-5.59-0.932-8.384 1.863-1.397 1.863 3.261 5.59-0.466 2.795-3.261-2.329-6.521 0-10.248 0.932-2.795 0.932 1.863 3.726 2.795 5.589 0.932 1.863 1.863 3.726 1.398 6.056l-5.124-5.59c-6.055 3.261-9.782 9.316-14.906 13.974-2.329 1.863-1.397 5.124-1.397 7.918-3.261 0-6.987-0.932-8.85 0.932-1.397 1.863-0.932 4.658-0.932 7.453-4.658-0.466-5.124-7.453-9.315-6.056-4.192 0.932-8.85 1.397-12.577 3.727 2.795 5.59-4.658 2.329-3.726 3.26-6.987-4.192-13.042-7.453-20.495-4.658-15.837-5.124-35.4-2.795-49.84-0.931 0-2.329 0.466-4.658-0.466-5.124-0.932 2.329-3.726 1.397-3.26 1.397-8.85-6.055-17.7-9.782-27.016-14.905-8.384 0.932-16.303-3.261-18.632-5.59-6.521-6.055-13.974-2.795-20.029-4.192-13.042-3.261-17.7-16.769-19.098-26.084-0.932-4.658-4.658-6.521-6.055-6.056-6.055-19.563-15.371-37.263-22.824-55.429-1.863-4.658-1.397-9.316-1.397-14.44 2.329 0.932 4.658 0.466 4.192-2.794-2.329-15.371-7.918-27.016-13.974-38.195 3.261-15.837 3.726-34.469 11.179-48.443 6.521-12.576 18.632-19.098 27.016-29.811 2.795-3.726 2.795-8.85 5.59-12.11 9.316-9.316 18.632-19.098 28.879-27.482 4.658-3.726 10.247 0 17.234-1.397 2.329-8.384 11.645-15.837 20.495-13.508 3.726 0.932 11.179-8.85 13.508-9.782 3.726-1.397 1.863 3.726 1.863 6.987 8.85-6.987 20.961-10.713 32.14-14.906" fill="url(#edb73165-f4d6-4796-8066-ffc17443206a)" fill-rule="nonzero" stroke="none" stroke-width="1" stroke-linecap="butt" stroke-linejoin="miter" stroke-miterlimit="10" stroke-dasharray="" stroke-dashoffset="0" font-family="none" font-weight="none" font-size="none" text-anchor="none" style="mix-blend-mode: normal" data-fill-palette-color="tertiary"></path></g><g transform="matrix(1,0,0,1,74.00214768585693,90)"><svg viewBox="0 0 171.99570462828615 180" height="180" width="171.99570462828615"><g><svg viewBox="0 0 171.99570462828615 180" height="180" width="171.99570462828615"><g><svg viewBox="0 0 192 200.93525053250843" height="180" width="171.99570462828615"><g><svg viewBox="0 0 192 200.93525053250843" height="200.93525053250843" width="192"><g id="textblocktransform"><svg viewBox="0 0 192 200.93525053250843" height="200.93525053250843" width="192" id="textblock"><g><svg viewBox="0 0 192 117.08631578947369" height="117.08631578947369" width="192"><g transform="matrix(1,0,0,1,0,0)"><svg width="192" viewBox="-5.949999809265137 -37.95000076293945 71.25 43.45000076293945" height="117.08631578947369" data-palette-color="#461d6c"><path d="M-5.8 0.65L-5.95-0.05Q-5.95-2.65-1.98-5.3 2-7.95 7.83-9.58 13.65-11.2 19.05-11.2L19.05-11.2Q20.4-11.2 22-11.05L22-11.05Q33-21.35 33-32.3L33-32.3Q33-35.25 31.05-35.25L31.05-35.25Q29.85-35.25 28.3-34.02 26.75-32.8 25.33-30.8 23.9-28.8 22.93-25.85 21.95-22.9 21.95-19.63 21.95-16.35 22.85-15.8L22.85-15.8Q23.1-15.65 23.1-15.45L23.1-15.45Q22.7-14.6 21.98-14.6 21.25-14.6 20.83-15.03 20.4-15.45 20.4-16.25L20.4-16.25Q20.4-20.65 21.68-24.83 22.95-29 24.8-31.78 26.65-34.55 28.7-36.25 30.75-37.95 32.35-37.95L32.35-37.95Q35.05-37.95 35.05-33.7L35.05-33.7Q35.05-21.45 23.55-10.85L23.55-10.85Q28.9-9.9 28.9-7.1L28.9-7.1Q28.9-6.1 27.63-5.03 26.35-3.95 25.58-3.9 24.8-3.85 24.75-4.05L24.75-4.05Q24.75-4.2 25.3-4.55L25.3-4.55Q27.4-5.85 27.4-6.75L27.4-6.75Q27.4-8.8 21.75-9.25L21.75-9.25Q15.5-3.95 8.25-0.6 1 2.75-2.2 2.75L-2.2 2.75Q-3.8 2.75-4.73 2.05-5.65 1.35-5.8 0.65L-5.8 0.65ZM18.7-9.4L18.7-9.4Q13.75-9.4 8.53-8.2 3.3-7-0.33-4.95-3.95-2.9-4-0.75L-4-0.75Q-3.85 1.1-1.2 1.1L-1.2 1.1Q2.35 1.1 8.45-1.8 14.55-4.7 20.1-9.35L20.1-9.35Q19.6-9.4 18.7-9.4ZM56.6-8.8L56.6-8.8Q56.95-8.8 56.95-8.45 56.95-8.1 56.4-7.85L56.4-7.85Q53-6.15 48.4-6L48.4-6Q46-1.4 45.95-1.28 45.9-1.15 45.72-0.78 45.55-0.4 45.4-0.2L45.4-0.2Q45.1 0.3 44.75 0.3L44.75 0.3Q43.85 0.3 43.85-0.95L43.85-0.95Q43.85-3.6 43.2-6.35L43.2-6.35Q40.45-6.75 38.15-7.6L38.15-7.6 31.4 4.45 30.35 5.2Q29.75 5.5 29.4 5.5L29.4 5.5Q28.95 5.5 28.95 5L28.95 5Q28.95 4.7 29.15 4.3L29.15 4.3 36.35-8.35Q32.7-10 30.5-12.58 28.3-15.15 28.3-18.3L28.3-18.3Q28.3-22.45 31.3-22.45L31.3-22.45Q33.25-22.45 35.77-20.55 38.3-18.65 40.45-15.5L40.45-15.5 50.2-32.7Q50.75-33.5 52.15-33.5L52.15-33.5Q52.5-33.5 52.5-33.27 52.5-33.05 41.55-13.6L41.55-13.6Q43.3-10.45 44.1-7.05L44.1-7.05Q45.55-6.85 47.5-6.85L47.5-6.85Q53.15-17.85 62.85-35.2L62.85-35.2Q63.4-36.2 64.9-36.3L64.9-36.3Q65.3-36.3 65.3-36.02 65.3-35.75 64.95-35.15 64.6-34.55 61.9-29.8L61.9-29.8Q52.1-12.75 48.9-6.85L48.9-6.85Q53.1-7.1 56.6-8.8ZM36.85-9.2L36.85-9.2 39.7-14.2Q37.8-17.05 35.55-18.8 33.3-20.55 31.75-20.55L31.75-20.55Q30.05-20.55 30.05-18.5L30.05-18.5Q30.05-15.55 31.87-13.15 33.7-10.75 36.85-9.2ZM38.65-8.45L38.65-8.45Q40.65-7.65 42.95-7.25L42.95-7.25Q42.1-10 40.85-12.35L40.85-12.35Q38.7-8.55 38.65-8.45ZM44.25-6.2L44.25-6.2Q44.7-4 44.7-1.8L44.7-1.8 44.75-1.25Q45.1-2.05 47.05-6L47.05-6Q46.15-6 44.25-6.2Z" opacity="1" transform="matrix(1,0,0,1,0,0)" fill="#461d6c" class="undefined-text-0" data-fill-palette-color="primary" id="text-0"></path></svg></g></svg></g><g transform="matrix(1,0,0,1,0,134.17201933473683)"><svg viewBox="0 0 192 66.76323119777159" height="66.76323119777159" width="192"><g transform="matrix(1,0,0,1,0,0)"><svg width="192" viewBox="0.550000011920929 -24.950000762939453 107.69999694824219 37.45000076293945" height="66.76323119777159" data-palette-color="url(#4434aedb-ecd1-4bc5-b029-e8dd08297304)"></svg></g></svg></g></svg></g></svg></g><g></g></svg></g></svg></g></svg></g></svg></g><defs><linearGradient x1="0.054" x2="0.941" y1="0.5" y2="0.5" id="4434aedb-ecd1-4bc5-b029-e8dd08297304"><stop stop-color="#eaa79c" offset="0"></stop><stop stop-color="#f2e8cb" offset="0.498"></stop><stop stop-color="#eaa79c" offset="1"></stop></linearGradient><linearGradient x1="0.054" x2="0.941" y1="0.5" y2="0.5" id="edb73165-f4d6-4796-8066-ffc17443206a"><stop stop-color="#0f3054" offset="0"></stop><stop stop-color="#3b8dcb" offset="0.498"></stop><stop stop-color="#0f3054" offset="1"></stop></linearGradient></defs><mask id="0998d16f-a88e-45f0-8d60-4ff808cd34b8"><g id="SvgjsG1551"><svg viewBox="0 0 320 360" height="360" width="320"><g><svg></svg></g><g><svg viewBox="0 0 320 360" height="360" width="320"><g></g><g transform="matrix(1,0,0,1,74.00214768585693,90)"><svg viewBox="0 0 171.99570462828615 180" height="180" width="171.99570462828615"><g><svg viewBox="0 0 171.99570462828615 180" height="180" width="171.99570462828615"><g><svg viewBox="0 0 192 200.93525053250843" height="180" width="171.99570462828615"><g><svg viewBox="0 0 192 200.93525053250843" height="200.93525053250843" width="192"><g id="SvgjsG1550"><svg viewBox="0 0 192 200.93525053250843" height="200.93525053250843" width="192" id="SvgjsSvg1549"><g><svg viewBox="0 0 192 117.08631578947369" height="117.08631578947369" width="192"><g transform="matrix(1,0,0,1,0,0)"><svg width="192" viewBox="-5.949999809265137 -37.95000076293945 71.25 43.45000076293945" height="117.08631578947369" data-palette-color="#461d6c"></svg></g></svg></g><g transform="matrix(1,0,0,1,0,134.17201933473683)"><svg viewBox="0 0 192 66.76323119777159" height="66.76323119777159" width="192"><g transform="matrix(1,0,0,1,0,0)"><svg width="192" viewBox="0.550000011920929 -24.950000762939453 107.69999694824219 37.45000076293945" height="66.76323119777159" data-palette-color="url(#4434aedb-ecd1-4bc5-b029-e8dd08297304)"><path d="M9.75-16.65L9.75-16.65 9.75-2.75Q12.15-0.9 15.7-0.9L15.7-0.9Q17.6-0.9 18.98-1.7 20.35-2.5 21.13-3.7 21.9-4.9 22.3-6.75L22.3-6.75Q23-9.7 23-14.2 23-18.7 21.45-21.05 19.9-23.4 17.1-23.4 14.3-23.4 12.03-21.03 9.75-18.65 9.75-16.65ZM18.75-24.95L18.75-24.95Q22.9-24.95 25.7-22.08 28.5-19.2 28.5-12.98 28.5-6.75 25.15-3.08 21.8 0.6 15.6 0.6L15.6 0.6Q12.35 0.6 9.75-0.85L9.75-0.85 9.75 11.05 13.25 11.3 13.25 12.5 1.75 12.5 1.75 11.3 4.85 11.05 4.85-22.8 0.55-23 0.55-24.15 9.55-24.7 9.4-20.35 9.85-20.35Q11.2-22.55 13.6-23.75 16-24.95 18.75-24.95ZM66.1-24.75L66.1-24.75Q74.1-24.75 74.1-17.05L74.1-17.05Q74.1-11.5 73.75-1.45L73.75-1.45 77.3-1.2 77.3 0 66.15 0 66.15-1.2 68.85-1.4Q69.2-14.6 69.2-17.43 69.2-20.25 68.15-21.65 67.1-23.05 64.75-23.05 62.4-23.05 60.4-21.08 58.4-19.1 57.7-16.85L57.7-16.85Q57.7-11.45 57.35-1.45L57.35-1.45 60.9-1.2 60.9 0 49.75 0 49.75-1.2 52.45-1.4Q52.8-14.6 52.8-17.43 52.8-20.25 51.75-21.65 50.7-23.05 48.13-23.05 45.55-23.05 43.3-20.33 41.05-17.6 41.05-15.5L41.05-15.5 41.05-1.45 44.8-1.2 44.8 0 32.9 0 32.9-1.2 36.15-1.4 36.15-22.6 31.9-22.8 31.9-23.95 40.85-24.55 40.6-19.4 41.1-19.4Q42.45-22.05 44.73-23.4 47-24.75 49.7-24.75L49.7-24.75Q56.45-24.75 57.5-19.35L57.5-19.35 57.5-19.4Q58.85-22.05 61.13-23.4 63.4-24.75 66.1-24.75ZM90.7 0.6L90.7 0.6Q82.7 0.6 82.7-7.1L82.7-7.1Q82.7-12.75 83.05-22.8L83.05-22.8 79.05-23 79.05-24.15 87.95-24.7Q87.6-11.5 87.6-6.75L87.6-6.75Q87.6-3.9 88.65-2.5 89.7-1.1 92.18-1.1 94.65-1.1 96.85-3.88 99.05-6.65 99.05-8.75L99.05-8.75 99.05-22.8 94.9-23 94.9-24.15 103.95-24.7 103.95-1.55 108.2-1.35 108.25-0.2 99.25 0.4 99.6-5 99-5Q96.4 0.6 90.7 0.6Z" opacity="1" transform="matrix(1,0,0,1,0,0)" fill="white" class="undefined-text-1" id="SvgjsPath1547"></path></svg></g></svg></g></svg></g></svg></g><g></g></svg></g></svg></g></svg></g></svg></g><defs><linearGradient x1="0.054" x2="0.941" y1="0.5" y2="0.5" id="SvgjsLinearGradient1546"><stop stop-color="#eaa79c" offset="0"></stop><stop stop-color="#f2e8cb" offset="0.498"></stop><stop stop-color="#eaa79c" offset="1"></stop></linearGradient><mask></mask></defs></svg></g></mask><mask id="d23078d7-2433-4bd6-a132-cf59737ff3d6"><g id="SvgjsG1563"><svg viewBox="0 0 320 360" height="360" width="320"><g><svg></svg></g><g><svg viewBox="0 0 320 360" height="360" width="320"><g><path xmlns="http://www.w3.org/2000/svg" d="M20.961 227.22l3.726 4.658-1.863-6.056c-0.466-2.795-3.726 0.466-1.863 1.398M25.153 224.425c1.397 2.329 2.795 4.658 2.795 6.987 0 3.261 2.795 4.658 5.123 5.589-3.261-3.726-5.124-13.974-7.918-12.576M204.017 26.929c7.918 0 15.371-0.932 23.756 0.931 20.495 5.124 37.729 15.371 49.374 29.811l32.606 52.169c1.397 13.042 4.192 27.482 3.726 43.319 3.261 0 2.795-4.658 6.521-5.59-3.726 9.316-5.59 20.961-6.521 34.469-2.329-7.453 0-18.632 0.466-24.687-3.261 5.124-5.124 1.397-5.124-0.932 0.466-3.726-1.397-3.261-2.795-4.658-5.124-4.658-8.384-9.782-12.11-17.7 2.329-6.055 2.795-14.905-4.658-19.563-2.329-1.397-5.124-3.726-6.521-7.453-1.863-5.124-5.124-11.179-4.193-19.097 0.466-2.329-6.987 5.124-11.179 1.863-18.166-12.576-36.332-27.016-58.224-39.127-11.645 0-20.029-4.192-24.221-9.316-3.726-4.658-0.932-10.713 4.658-11.179 3.261 0 6.987-0.932 9.782 0.932 0.466-1.863 2.329-4.192 4.657-4.192M157.904 16.215l0.932 0.466c4.658 0.932 6.987 7.453 12.11 5.124 0 3.261 0.466 6.521-0.466 8.85-1.397 3.726-5.59 3.726-8.85 3.726-31.208-1.863-49.374 11.179-68.471 22.358-5.124 3.261-10.713 5.59-14.906 9.782-20.029 18.632-41.921 35.866-47.045 70.335l-4.192 38.195c-0.466 4.192-5.124 8.384-4.192 13.508l3.26 22.824c-3.261-3.261-5.124 0.932-4.192 2.795 0.466 1.397 2.329 6.055 5.124 1.863 3.726 6.987 7.453 20.495 12.576 26.55 15.837 18.632 36.332 35.4 53.101 52.169 4.192-0.932 7.453-0.932 8.384-3.727 1.397 2.795-1.397 5.59-3.726 6.056 7.453 4.658 15.837 8.85 27.016 9.781 14.44 0.932 27.948 3.261 40.524 6.522 6.521-1.863 13.042-2.795 20.029-3.261 2.329 0 3.726-3.726 6.521-4.658l0.466-4.658c2.795 4.192 2.329-1.397 0.466-4.192 3.261 2.795 4.192 5.124 5.589 6.987 0-1.397 3.726-6.521 3.727-0.466l0.931-6.055c1.397-0.932 1.863 5.124 3.261 0.931 1.397-4.192 4.192-0.932 6.987-2.329-0.932 1.863-0.466 5.59 2.794 3.261l3.727-3.261c2.329 5.59 6.055 3.261 7.918 2.329 20.495-13.042 40.99-28.413 60.553-43.784l-0.466 6.055 2.329-7.453c2.329 2.329 4.192 0.466 5.124-0.931 2.795-4.658 6.521-9.316 12.577-13.508-7.453 20.029-16.303 35.866-27.482 48.908l-4.658 5.59c0 3.261-0.932 7.453-4.658 7.918-1.863 0.466-5.59-0.932-8.384 1.863-1.397 1.863 3.261 5.59-0.466 2.795-3.261-2.329-6.521 0-10.248 0.932-2.795 0.932 1.863 3.726 2.795 5.589 0.932 1.863 1.863 3.726 1.398 6.056l-5.124-5.59c-6.055 3.261-9.782 9.316-14.906 13.974-2.329 1.863-1.397 5.124-1.397 7.918-3.261 0-6.987-0.932-8.85 0.932-1.397 1.863-0.932 4.658-0.932 7.453-4.658-0.466-5.124-7.453-9.315-6.056-4.192 0.932-8.85 1.397-12.577 3.727 2.795 5.59-4.658 2.329-3.726 3.26-6.987-4.192-13.042-7.453-20.495-4.658-15.837-5.124-35.4-2.795-49.84-0.931 0-2.329 0.466-4.658-0.466-5.124-0.932 2.329-3.726 1.397-3.26 1.397-8.85-6.055-17.7-9.782-27.016-14.905-8.384 0.932-16.303-3.261-18.632-5.59-6.521-6.055-13.974-2.795-20.029-4.192-13.042-3.261-17.7-16.769-19.098-26.084-0.932-4.658-4.658-6.521-6.055-6.056-6.055-19.563-15.371-37.263-22.824-55.429-1.863-4.658-1.397-9.316-1.397-14.44 2.329 0.932 4.658 0.466 4.192-2.794-2.329-15.371-7.918-27.016-13.974-38.195 3.261-15.837 3.726-34.469 11.179-48.443 6.521-12.576 18.632-19.098 27.016-29.811 2.795-3.726 2.795-8.85 5.59-12.11 9.316-9.316 18.632-19.098 28.879-27.482 4.658-3.726 10.247 0 17.234-1.397 2.329-8.384 11.645-15.837 20.495-13.508 3.726 0.932 11.179-8.85 13.508-9.782 3.726-1.397 1.863 3.726 1.863 6.987 8.85-6.987 20.961-10.713 32.14-14.906" fill="white" fill-rule="nonzero" stroke="none" stroke-width="1" stroke-linecap="butt" stroke-linejoin="miter" stroke-miterlimit="10" stroke-dasharray="" stroke-dashoffset="0" font-family="none" font-weight="none" font-size="none" text-anchor="none" style="mix-blend-mode: normal"></path></g><g transform="matrix(1,0,0,1,74.00214768585693,90)"><svg viewBox="0 0 171.99570462828615 180" height="180" width="171.99570462828615"><g><svg viewBox="0 0 171.99570462828615 180" height="180" width="171.99570462828615"><g><svg viewBox="0 0 192 200.93525053250843" height="180" width="171.99570462828615"><g><svg viewBox="0 0 192 200.93525053250843" height="200.93525053250843" width="192"><g id="SvgjsG1562"><svg viewBox="0 0 192 200.93525053250843" height="200.93525053250843" width="192" id="SvgjsSvg1561"><g><svg viewBox="0 0 192 117.08631578947369" height="117.08631578947369" width="192"><g transform="matrix(1,0,0,1,0,0)"><svg width="192" viewBox="-5.949999809265137 -37.95000076293945 71.25 43.45000076293945" height="117.08631578947369" data-palette-color="#461d6c"></svg></g></svg></g><g transform="matrix(1,0,0,1,0,134.17201933473683)"><svg viewBox="0 0 192 66.76323119777159" height="66.76323119777159" width="192"><g transform="matrix(1,0,0,1,0,0)"><svg width="192" viewBox="0.550000011920929 -24.950000762939453 107.69999694824219 37.45000076293945" height="66.76323119777159" data-palette-color="url(#4434aedb-ecd1-4bc5-b029-e8dd08297304)"></svg></g></svg></g></svg></g></svg></g><g></g></svg></g></svg></g></svg></g></svg></g><defs><linearGradient x1="0.054" x2="0.941" y1="0.5" y2="0.5" id="SvgjsLinearGradient1559"><stop stop-color="#eaa79c" offset="0"></stop><stop stop-color="#f2e8cb" offset="0.498"></stop><stop stop-color="#eaa79c" offset="1"></stop></linearGradient><linearGradient x1="0.054" x2="0.941" y1="0.5" y2="0.5" id="SvgjsLinearGradient1558"><stop stop-color="#0f3054" offset="0"></stop><stop stop-color="#3b8dcb" offset="0.498"></stop><stop stop-color="#0f3054" offset="1"></stop></linearGradient><mask></mask></defs><mask id="SvgjsMask1557"><g id="SvgjsG1556"><svg viewBox="0 0 320 360" height="360" width="320"><g><svg></svg></g><g><svg viewBox="0 0 320 360" height="360" width="320"><g></g><g transform="matrix(1,0,0,1,74.00214768585693,90)"><svg viewBox="0 0 171.99570462828615 180" height="180" width="171.99570462828615"><g><svg viewBox="0 0 171.99570462828615 180" height="180" width="171.99570462828615"><g><svg viewBox="0 0 192 200.93525053250843" height="180" width="171.99570462828615"><g><svg viewBox="0 0 192 200.93525053250843" height="200.93525053250843" width="192"><g id="SvgjsG1555"><svg viewBox="0 0 192 200.93525053250843" height="200.93525053250843" width="192" id="SvgjsSvg1554"><g><svg viewBox="0 0 192 117.08631578947369" height="117.08631578947369" width="192"><g transform="matrix(1,0,0,1,0,0)"><svg width="192" viewBox="-5.949999809265137 -37.95000076293945 71.25 43.45000076293945" height="117.08631578947369" data-palette-color="#461d6c"></svg></g></svg></g><g transform="matrix(1,0,0,1,0,134.17201933473683)"><svg viewBox="0 0 192 66.76323119777159" height="66.76323119777159" width="192"><g transform="matrix(1,0,0,1,0,0)"><svg width="192" viewBox="0.550000011920929 -24.950000762939453 107.69999694824219 37.45000076293945" height="66.76323119777159" data-palette-color="url(#4434aedb-ecd1-4bc5-b029-e8dd08297304)"></svg></g></svg></g></svg></g></svg></g><g></g></svg></g></svg></g></svg></g></svg></g><defs><linearGradient x1="0.054" x2="0.941" y1="0.5" y2="0.5" id="SvgjsLinearGradient1552"><stop stop-color="#eaa79c" offset="0"></stop><stop stop-color="#f2e8cb" offset="0.498"></stop><stop stop-color="#eaa79c" offset="1"></stop></linearGradient><mask></mask></defs></svg></g></mask></svg></g></mask></svg><rect width="320" height="360" fill="none" stroke="none" visibility="hidden"></rect></g></svg></g></svg>